<svg xmlns="http://www.w3.org/2000/svg" viewBox="0 0 512 512" xml:space="preserve"><path d="m68.269 238.865-10.726 18.483c-8.166 13.039-8.474 26.914-.939 35.61 6.4 7.364 16.939 7.364 23.322 0h.009c2.782-3.217 11.273-13.005-1.067-35.831z"/><path d="M256 0C114.842 0 0 114.842 0 256s114.842 256 256 256 256-114.842 256-256S397.158 0 256 0m42.667 93.867a8.525 8.525 0 0 1 8.533 8.533c0 18.825 15.309 34.133 34.133 34.133 4.719 0 8.533 3.814 8.533 8.533s-3.814 8.533-8.533 8.533c-28.228 0-51.2-22.972-51.2-51.2a8.53 8.53 0 0 1 8.534-8.532m-128 42.666c18.825 0 34.133-15.309 34.133-34.133a8.53 8.53 0 0 1 8.533-8.533 8.525 8.525 0 0 1 8.533 8.533c0 28.228-22.963 51.2-51.2 51.2-4.71 0-8.533-3.814-8.533-8.533s3.823-8.534 8.534-8.534M92.826 304.137c-6.477 7.475-15.206 11.597-24.559 11.597-9.344 0-18.074-4.122-24.559-11.597-12.561-14.481-12.868-36.301-.777-55.603l17.954-30.95c3.063-5.265 11.699-5.265 14.771 0l18.108 31.198c14.968 27.672 7.74 45.362-.938 55.355m28.765-99.115a8.553 8.553 0 0 1 12.049-.768c8.09 7.117 19.925 10.257 32.64 8.661a55 55 0 0 0 15.932-4.565c-10.121-2.372-20.548-6.434-29.961-11.81-20.113-11.503-31.761-26.556-32.768-42.402-.299-4.693 3.268-8.755 7.979-9.054 4.693-.273 8.747 3.277 9.054 7.97 1.365 21.154 41.353 42.308 67.746 40.559 3.576-.128 6.682 1.673 8.201 4.762a8.52 8.52 0 0 1-1.254 9.395c-13.013 14.788-32.478 22.554-51.2 22.554-13.952 0-27.486-4.309-37.649-13.252-3.533-3.116-3.875-8.509-.769-12.05M365.5 363.136c-1.638 2.466-4.343 3.797-7.108 3.797a8.54 8.54 0 0 1-4.719-1.434L332.8 351.59l-20.864 13.91a8.53 8.53 0 0 1-9.463 0L281.6 351.59l-20.864 13.91a8.53 8.53 0 0 1-9.463 0L230.4 351.59l-20.864 13.91a8.53 8.53 0 0 1-9.463 0L179.2 351.59l-20.864 13.91c-3.942 2.611-9.224 1.544-11.836-2.364-2.611-3.925-1.553-9.224 2.372-11.836l25.6-17.067a8.495 8.495 0 0 1 9.464 0l20.864 13.909 20.873-13.909a8.49 8.49 0 0 1 9.463 0L256 348.143l20.873-13.909a8.49 8.49 0 0 1 9.463 0l20.864 13.909 20.873-13.909a8.49 8.49 0 0 1 9.463 0l25.6 17.067c3.925 2.611 4.984 7.91 2.364 11.835m24.141-146.065c-10.155 8.934-23.697 13.252-37.649 13.252-18.714 0-38.178-7.765-51.2-22.554a8.53 8.53 0 0 1-1.246-9.395c1.519-3.089 4.591-4.898 8.201-4.762 26.3 1.724 66.389-19.405 67.738-40.559.307-4.693 4.395-8.226 9.062-7.97 4.71.299 8.277 4.361 7.97 9.054-1.007 15.846-12.646 30.899-32.759 42.402-9.412 5.376-19.849 9.438-29.961 11.81a55 55 0 0 0 15.932 4.565c12.681 1.587 24.55-1.545 32.631-8.661 3.541-3.098 8.926-2.773 12.049.768 3.114 3.542 2.773 8.935-.768 12.05"/></svg>
