<svg width="48" height="48" viewBox="0 0 48 48" fill="none" xmlns="http://www.w3.org/2000/svg"><path fill-rule="evenodd" clip-rule="evenodd" d="M43.124 29.873C40.614 38.053 33.002 44 24 44 12.954 44 4 35.046 4 24S12.954 4 24 4a19.95 19.95 0 0 1 15.008 6.78c.735.834 1.402 1.73 1.992 2.68V15h.865q.491.972.876 2H41v4.999l-.799.6a3 3 0 0 0 3.498 4.874q-.215 1.229-.575 2.4m.836-7.144a20 20 0 0 0-.96-4.991v4.261l.799.6q.083.062.161.13m-27.035 11.65a1 1 0 0 1-1.854-.75L16 34c-.928-.371-.928-.372-.928-.373v-.001l.002-.003.003-.007.008-.02a3 3 0 0 1 .107-.225c.072-.14.178-.33.326-.55a7.5 7.5 0 0 1 1.442-1.59q.188-.157.398-.31l-5.072-2.255a2 2 0 1 1 .772-1.845l6.538 2.905C20.776 29.288 22.228 29 24 29c3.428 0 5.656 1.078 7.04 2.232a7.5 7.5 0 0 1 1.442 1.588 6 6 0 0 1 .41.722l.023.055.008.019.003.007.001.003.001.001c0 .001 0 .002-.928.373l.928-.371a1 1 0 0 1-1.853.75l-.005-.011-.04-.083a4 4 0 0 0-.212-.355 5.5 5.5 0 0 0-1.058-1.162C28.744 31.922 26.972 31 24 31c-1.933 0-3.358.39-4.398.895l-.008.019-.016-.007c-.548.269-.988.57-1.338.861-.516.43-.853.855-1.058 1.162a4 4 0 0 0-.252.438zm1.63-14.547a1 1 0 0 0-1.11-1.664c-1.436.957-2.356 1.415-3.761 1.883a1 1 0 0 0 .632 1.898c1.595-.532 2.675-1.074 4.239-2.117m10.613-1.387a1 1 0 0 0 .277 1.387c1.564 1.043 2.644 1.585 4.239 2.117a1 1 0 0 0 .632-1.898c-1.405-.468-2.325-.926-3.761-1.883a1 1 0 0 0-1.387.277m8.125-13.152a1 1 0 0 1 1.414 0l1 1a1 1 0 0 1-1.414 1.414l-1-1a1 1 0 0 1 0-1.414M42 3a1 1 0 0 1 1 1v2a1 1 0 1 1-2 0V4a1 1 0 0 1 1-1m4.707 2.293a1 1 0 0 0-1.414 0l-1 1a1 1 0 0 0 1.414 1.414l1-1a1 1 0 0 0 0-1.414" fill="#333"/><path fill-rule="evenodd" clip-rule="evenodd" d="m40.201 22.599.799-.6V17h2v4.999l.799.6a3 3 0 1 1-3.598 0M43 15v-4a1 1 0 1 0-2 0v4zm-1-7a3 3 0 0 0-3 3v10a5 5 0 1 0 6 0V11a3 3 0 0 0-3-3" fill="#333"/></svg>
