<svg xmlns="http://www.w3.org/2000/svg" viewBox="0 0 59.003 59.003" xml:space="preserve"><path d="M7 53.146H0v-1c0-12.351 5.694-14.943 10.471-14.943 3.284 0 6.377 1.25 7.724 1.877 2.013-1.971 4.435-2.405 6.179-2.405.77 0 1.449.084 1.969.178.864-2.487 3.436-3.96 4.658-4.537V28.06c-2.49-1.544-3.21-4.301-3.417-5.667-12.447-2.641-14.245-11.764-14.317-12.158l-.147-.807 9.027-3.569.248 1.154c.041.183 1.048 4.424 6.022 5.597 1.222-1.713 5.176-6.485 11.321-6.485 3.87 0 7.836 1.921 11.788 5.71 7.228 6.93 9.41 16.976 5.695 26.218-3.666 9.121-12.063 15.014-21.391 15.014q-.306 0-.614-.008c-.902.105-8.049.737-16.399-4.007a4.75 4.75 0 0 1-3.007 1.077c-1.759 0-3.586-.936-5.432-2.781-.291-.291-.629-.444-.978-.444-1.193-.003-2.4 1.799-2.4 5.242z"/></svg>
