<svg xmlns="http://www.w3.org/2000/svg" viewBox="0 0 193.851 193.851" xml:space="preserve"><path d="M176.84 133.23h-50.168L83.126 28.094a7.504 7.504 0 0 0-9.801-4.059l-7.871 3.262L56.066 4.63A7.504 7.504 0 0 0 46.265.571l-29.59 12.261a7.5 7.5 0 0 0-4.057 9.8l9.395 22.663-7.872 3.262a7.5 7.5 0 0 0-4.058 9.799l54.201 130.865a7.5 7.5 0 0 0 6.929 4.63H176.84a7.5 7.5 0 0 0 7.5-7.5V140.73a7.5 7.5 0 0 0-7.5-7.5M45.078 17.3l6.517 15.733-15.726 6.515-6.521-15.73zM26.812 59.545l45.326-18.781L114.731 143.6a7.5 7.5 0 0 0 6.929 4.63h11.057v30.621h-56.49zM169.34 178.851h-21.623V148.23h21.623z"/></svg>
