<svg xmlns="http://www.w3.org/2000/svg" viewBox="0 0 268.705 268.705" xml:space="preserve"><path d="M197.213 157.064c-7.588 0-31.576-128.096-31.576-128.096C164.378 12.621 150.747 0 134.353 0s-30.025 12.621-31.284 28.968c0 0-23.988 128.096-31.576 128.096-30.049 0-54.409 24.36-54.409 54.409s24.36 54.409 54.409 54.409a54.2 54.2 0 0 0 20.556-4.034 52.2 52.2 0 0 1-8.783-20.891c-2.014.366-4.16.571-6.396.571-11.281 0-20.425-5.038-20.425-11.251 0-6.214 9.145-11.252 20.425-11.252 10.446 0 19.046 4.322 20.263 9.896l.41.032a37.03 37.03 0 0 0 9.721 27.917 37.03 37.03 0 0 0 27.089 11.836 37.03 37.03 0 0 0 27.089-11.836 37.03 37.03 0 0 0 9.72-27.917l.411-.032c1.217-5.574 9.817-9.896 20.263-9.896 11.281 0 20.425 5.038 20.425 11.252s-9.145 11.251-20.425 11.251c-2.236 0-4.383-.205-6.396-.571a52.2 52.2 0 0 1-8.782 20.891 54.2 54.2 0 0 0 20.556 4.034c30.049 0 54.409-24.36 54.409-54.409-.001-30.05-24.361-54.409-54.41-54.409m-96.918 18.654a7.5 7.5 0 1 1 0-15 7.5 7.5 0 0 1 0 15m26.661-98.184-14 67a7.503 7.503 0 0 1-8.876 5.808 7.5 7.5 0 0 1-5.808-8.876l14-67c.848-4.055 4.826-6.645 8.876-5.808a7.5 7.5 0 0 1 5.808 8.876"/></svg>
