<svg xmlns="http://www.w3.org/2000/svg" viewBox="0 0 489.514 489.514" xml:space="preserve"><path d="M254.002 489.114v-103.3c0-27.6-22.5-50.1-50.1-50.1h-121.2c7.8 10.1-5.8 24.5-5.4 37.7.8 17.1 22.9 23.7 40 21.4s35.7-8.2 49.7 1.9c8.9 6.2 13.2 17.5 15.5 28 5.4 21 7 43.1 4.7 64.8h66.8z"/><path d="M446.602 136.214c-9.7-58.2-51.6-111-107.6-128.5-36.1-11.3-74.5-8.5-111.8-2.3-48.9 8.2-103.3 26.8-123.1 72.2-10.5 24.1-9.7 51.3-11.6 77.3s-8.9 54.4-29.5 70.3c-9.3 7-22.1 13.6-22.5 25.2-.4 22.5 45.8 25.6 41.5 48.1-1.2 6.2-6.6 12-9.7 17.5h131.6c38.4 0 69.9 31.5 69.9 69.9v103.3h88.1c-8.7-108.4 2.7-140.9 9.7-155.3 6.6-12.8 16.7-22.9 26-33.8 38.5-45.1 58.7-106.1 49-163.9"/></svg>
